<svg width="50" height="50" viewBox="0 0 50 50" fill="none" xmlns="http://www.w3.org/2000/svg">
<path d="M50 25C50 31.7098 47.3565 37.8023 43.0542 42.2927C38.5037 47.0427 32.0971 50 25 50C17.9029 50 11.4963 47.0427 6.94583 42.2927C2.64354 37.8023 0 31.7098 0 25C0 11.193 11.193 0 25 0C38.807 0 50 11.193 50 25Z" fill="#E7E7E7"/>
<path d="M25 26.3404C30.6406 26.3404 35.2131 21.7678 35.2131 16.1272C35.2131 10.4867 30.6406 5.91406 25 5.91406C19.3594 5.91406 14.7868 10.4867 14.7868 16.1272C14.7868 21.7678 19.3594 26.3404 25 26.3404Z" fill="#B0B6B7"/>
<path d="M42.2072 40.2275C42.0071 40.4538 41.8019 40.6766 41.5926 40.8944C37.4108 45.26 31.5226 47.9779 24.9999 47.9779C18.4773 47.9779 12.5891 45.26 8.40727 40.8944C8.19795 40.6766 7.99287 40.4538 7.79269 40.2275C7.79269 35.9814 9.27101 30.9666 13.2875 28.3331C15.1027 27.143 17.4694 27.2288 19.2215 28.5101C20.5666 29.4938 22.3024 30.1044 24.9999 30.1044C27.6975 30.1044 29.4333 29.4938 30.7784 28.5101C32.5304 27.2288 34.8973 27.143 36.7124 28.3331C40.7289 30.9666 42.2072 35.9814 42.2072 40.2275Z" fill="#B0B6B7"/>
</svg>
